<?xml version="1.0" encoding="UTF-8"?>
<!DOCTYPE svg PUBLIC "-//W3C//DTD SVG 1.1//EN" "http://www.w3.org/Graphics/SVG/1.1/DTD/svg11.dtd">
<svg xmlns="http://www.w3.org/2000/svg" version="1.1" width="222px" height="39px" style="shape-rendering:geometricPrecision; text-rendering:geometricPrecision; image-rendering:optimizeQuality; fill-rule:evenodd; clip-rule:evenodd" xmlns:xlink="http://www.w3.org/1999/xlink">
<g><path style="opacity:0.948" fill="#ffca04" d="M 8.5,-0.5 C 10.8333,-0.5 13.1667,-0.5 15.5,-0.5C 17.9504,4.00972 20.1171,8.67638 22,13.5C 23.3514,8.60682 25.1847,3.94015 27.5,-0.5C 29.8333,-0.5 32.1667,-0.5 34.5,-0.5C 38.2696,10.2407 41.2696,21.2407 43.5,32.5C 43.3716,34.9548 42.3716,36.9548 40.5,38.5C 38.8333,38.5 37.1667,38.5 35.5,38.5C 32.6205,34.7012 30.7871,30.3678 30,25.5C 28.8331,30.1825 26.9998,34.5158 24.5,38.5C 22.8333,38.5 21.1667,38.5 19.5,38.5C 16.127,34.9522 13.9604,30.6189 13,25.5C 12.5108,30.5285 10.6774,34.8618 7.5,38.5C 5.83333,38.5 4.16667,38.5 2.5,38.5C 1.83333,37.1667 0.833333,36.1667 -0.5,35.5C -0.5,33.8333 -0.5,32.1667 -0.5,30.5C 2.33058,20.1882 5.33058,9.85485 8.5,-0.5 Z"/></g>
<g><path style="opacity:0.934" fill="#00274b" d="M 48.5,-0.5 C 57.1667,-0.5 65.8333,-0.5 74.5,-0.5C 78.3938,6.95838 76.0605,10.625 67.5,10.5C 67.6664,18.5069 67.4997,26.5069 67,34.5C 66.3103,36.3502 65.1436,37.6836 63.5,38.5C 62.1667,38.5 60.8333,38.5 59.5,38.5C 57.8564,37.6836 56.6897,36.3502 56,34.5C 55.5003,26.5069 55.3336,18.5069 55.5,10.5C 46.8793,10.5748 44.5459,6.90817 48.5,-0.5 Z"/></g>
<g><path style="opacity:0.923" fill="#00274c" d="M 81.5,-0.5 C 83.8333,-0.5 86.1667,-0.5 88.5,-0.5C 90.3713,3.86624 91.038,8.5329 90.5,13.5C 92.8333,13.5 95.1667,13.5 97.5,13.5C 96.8026,8.35966 97.8026,3.69299 100.5,-0.5C 102.5,-0.5 104.5,-0.5 106.5,-0.5C 107.469,0.309426 108.302,1.30943 109,2.5C 109.667,13.1667 109.667,23.8333 109,34.5C 108.338,35.9839 107.504,37.3172 106.5,38.5C 104.833,38.5 103.167,38.5 101.5,38.5C 99.8564,37.6836 98.6897,36.3502 98,34.5C 97.5017,31.1832 97.335,27.8499 97.5,24.5C 95.1667,24.5 92.8333,24.5 90.5,24.5C 90.6653,28.1817 90.4986,31.8484 90,35.5C 88.955,36.3734 88.1217,37.3734 87.5,38.5C 85.8333,38.5 84.1667,38.5 82.5,38.5C 81.5313,37.6906 80.6979,36.6906 80,35.5C 79.3333,24.1667 79.3333,12.8333 80,1.5C 80.7172,0.955796 81.2172,0.28913 81.5,-0.5 Z"/></g>
<g><path style="opacity:0.928" fill="#00264c" d="M 114.5,-0.5 C 121.167,-0.5 127.833,-0.5 134.5,-0.5C 143.798,6.20969 144.798,14.043 137.5,23C 139.304,26.1086 140.971,29.2753 142.5,32.5C 142.134,35.2559 140.8,37.2559 138.5,38.5C 137.167,38.5 135.833,38.5 134.5,38.5C 130.303,34.4769 126.803,29.8103 124,24.5C 123.667,28.1667 123.333,31.8333 123,35.5C 121.955,36.3734 121.122,37.3734 120.5,38.5C 118.833,38.5 117.167,38.5 115.5,38.5C 113.424,37.5732 112.257,35.9065 112,33.5C 111.333,23.5 111.333,13.5 112,3.5C 112.662,2.01608 113.496,0.682751 114.5,-0.5 Z M 123.5,10.5 C 125.924,10.1924 128.257,10.5258 130.5,11.5C 130.291,12.086 129.957,12.586 129.5,13C 127.527,13.4955 125.527,13.6621 123.5,13.5C 123.5,12.5 123.5,11.5 123.5,10.5 Z"/></g>
<g><path style="opacity:0.872" fill="#00274c" d="M 147.5,-0.5 C 149.5,-0.5 151.5,-0.5 153.5,-0.5C 154.122,0.626561 154.955,1.62656 156,2.5C 156.667,13.1667 156.667,23.8333 156,34.5C 155.31,36.3502 154.144,37.6836 152.5,38.5C 151.167,38.5 149.833,38.5 148.5,38.5C 146.856,37.6836 145.69,36.3502 145,34.5C 144.333,24.1667 144.333,13.8333 145,3.5C 145.662,2.01608 146.496,0.682751 147.5,-0.5 Z"/></g>
<g><path style="opacity:0.933" fill="#00274b" d="M 161.5,-0.5 C 169.833,-0.5 178.167,-0.5 186.5,-0.5C 189.869,2.38509 190.203,5.55175 187.5,9C 181.956,10.4038 176.29,10.9038 170.5,10.5C 170.5,11.5 170.5,12.5 170.5,13.5C 174.182,13.3347 177.848,13.5014 181.5,14C 185.566,17.7448 185.233,21.0782 180.5,24C 177.183,24.4983 173.85,24.665 170.5,24.5C 170.665,27.8499 170.498,31.1832 170,34.5C 169.31,36.3502 168.144,37.6836 166.5,38.5C 165.167,38.5 163.833,38.5 162.5,38.5C 160.856,37.6836 159.69,36.3502 159,34.5C 158.333,24.1667 158.333,13.8333 159,3.5C 159.662,2.01608 160.496,0.682751 161.5,-0.5 Z"/></g>
<g><path style="opacity:0.949" fill="#00274c" d="M 194.5,-0.5 C 202.833,-0.5 211.167,-0.5 219.5,-0.5C 219.833,0.5 220.5,1.16667 221.5,1.5C 221.5,3.5 221.5,5.5 221.5,7.5C 219.112,10.0762 216.112,11.0762 212.5,10.5C 212.666,18.84 212.5,27.1733 212,35.5C 210.955,36.3734 210.122,37.3734 209.5,38.5C 207.833,38.5 206.167,38.5 204.5,38.5C 203.828,37.7326 202.995,37.0659 202,36.5C 201.5,27.8397 201.334,19.1731 201.5,10.5C 196.197,11.5239 192.864,9.52393 191.5,4.5C 191.757,2.30755 192.757,0.640888 194.5,-0.5 Z"/></g>
</svg>
